<svg width="160" height="34" viewBox="0 0 160 34" fill="none" xmlns="http://www.w3.org/2000/svg">
<path fill-rule="evenodd" clip-rule="evenodd" d="M11.6574 0C9.73947 0 7.90016 0.761887 6.54399 2.11805L0 8.662V11.6574C0 13.7736 0.909024 15.6776 2.35791 17C0.909024 18.3224 0 20.2263 0 22.3426V25.338L6.54399 31.882C7.90016 33.2381 9.73947 34 11.6574 34C13.7737 34 15.6776 33.091 17 31.6421C18.3224 33.091 20.2263 34 22.3426 34C24.2605 34 26.0998 33.2381 27.456 31.882L34 25.338V22.3426C34 20.2263 33.091 18.3224 31.6421 17C33.091 15.6776 34 13.7736 34 11.6574V8.662L27.456 2.11805C26.0998 0.761887 24.2605 0 22.3426 0C20.2263 0 18.3224 0.909022 17 2.35791C15.6776 0.909022 13.7737 0 11.6574 0ZM21.895 17C21.8135 16.9256 21.7335 16.8492 21.6551 16.7708L17 12.1157L12.3449 16.7708C12.2665 16.8492 12.1865 16.9256 12.105 17C12.1865 17.0744 12.2665 17.1508 12.3449 17.2292L17 21.8843L21.6551 17.2292C21.7335 17.1508 21.8135 17.0744 21.895 17ZM18.8889 25.338V26.7685C18.8889 28.6759 20.4352 30.2223 22.3426 30.2223C23.2586 30.2223 24.137 29.8584 24.7847 29.2107L30.2223 23.7731V22.3426C30.2223 20.4352 28.6759 18.8889 26.7685 18.8889C25.8526 18.8889 24.9741 19.2528 24.3264 19.9004L18.8889 25.338ZM15.1111 25.338L9.6736 19.9004C9.0259 19.2528 8.14745 18.8889 7.23148 18.8889C5.32405 18.8889 3.77777 20.4352 3.77777 22.3426V23.7731L9.21528 29.2107C9.86298 29.8584 10.7415 30.2223 11.6574 30.2223C13.5648 30.2223 15.1111 28.6759 15.1111 26.7685V25.338ZM15.1111 7.23148V8.662L9.6736 14.0995C9.0259 14.7472 8.14745 15.1111 7.23148 15.1111C5.32405 15.1111 3.77777 13.5648 3.77777 11.6574V10.2269L9.21528 4.78934C9.86298 4.14165 10.7415 3.77778 11.6574 3.77778C13.5648 3.77778 15.1111 5.32405 15.1111 7.23148ZM24.3264 14.0995L18.8889 8.662V7.23148C18.8889 5.32405 20.4352 3.77778 22.3426 3.77778C23.2586 3.77778 24.137 4.14165 24.7847 4.78934L30.2223 10.2269V11.6574C30.2223 13.5648 28.6759 15.1111 26.7685 15.1111C25.8526 15.1111 24.9741 14.7472 24.3264 14.0995Z" fill="white"/>
<path d="M50.993 25C46.1676 25 43 22.2941 43 17.4118C43 12.8529 46.138 9.79412 50.9338 9.79412C55.4927 9.79412 58.6011 12.2941 58.6011 16.7353C58.6011 17.2647 58.5715 17.6765 58.4827 18.1176H45.99C46.1084 20.9412 47.4998 22.4412 50.9042 22.4412C53.9829 22.4412 55.2559 21.4412 55.2559 19.7059V19.4706H58.4531V19.7353C58.4531 22.8529 55.3743 25 50.993 25ZM50.8746 12.2941C47.6182 12.2941 46.1972 13.7353 46.0196 16.3529H55.5815V16.2941C55.5815 13.5882 54.0125 12.2941 50.8746 12.2941Z" fill="white"/>
<path d="M65.3179 25C62.2687 25 60.3445 23.5882 60.3445 21.1765C60.3445 18.9118 62.1799 17.7353 65.0811 17.4118L71.7715 16.7059V15.8529C71.7715 13.4412 70.7058 12.5882 67.8934 12.5882C65.1699 12.5882 63.8377 13.4706 63.8377 15.6176V15.7353H60.6701V15.6176C60.6701 12.2941 63.4529 9.79412 68.1302 9.79412C72.8076 9.79412 74.9095 12.3235 74.9095 15.8235V24.7059H71.9787V21.0588H71.7715C71.0018 23.5294 68.6631 25 65.3179 25ZM63.5417 20.9706C63.5417 22.1471 64.341 22.7059 66.1764 22.7059C69.5216 22.7059 71.7715 21.4706 71.7715 18.5882L65.9988 19.2353C64.341 19.4412 63.5417 19.8235 63.5417 20.9706Z" fill="white"/>
<path d="M87.4142 24.7059H84.0394C80.8718 24.7059 78.918 23.3235 78.918 19.7647V12.7353H76.4313V10.0882H78.918V6.88235H82.0856V10.0882H87.4142V12.7353H82.0856V19.5882C82.0856 21.3824 82.9145 21.8529 84.7499 21.8529H87.4142V24.7059Z" fill="white"/>
<path d="M96.815 25C91.9896 25 88.822 22.2941 88.822 17.4118C88.822 12.8529 91.96 9.79412 96.7558 9.79412C101.315 9.79412 104.423 12.2941 104.423 16.7353C104.423 17.2647 104.394 17.6765 104.305 18.1176H91.812C91.9304 20.9412 93.3218 22.4412 96.7262 22.4412C99.805 22.4412 101.078 21.4412 101.078 19.7059V19.4706H104.275V19.7353C104.275 22.8529 101.196 25 96.815 25ZM96.6966 12.2941C93.4402 12.2941 92.0192 13.7353 91.8416 16.3529H101.404V16.2941C101.404 13.5882 99.8346 12.2941 96.6966 12.2941Z" fill="white"/>
<path d="M110.015 24.7059H106.818V10.0882H109.749V14.0294H109.956C110.4 11.6765 111.998 9.79412 115.018 9.79412C118.363 9.79412 119.814 12.1765 119.814 14.9412V16.8529H116.646V15.5588C116.646 13.4706 115.758 12.5 113.567 12.5C111.051 12.5 110.015 13.8824 110.015 16.5V24.7059Z" fill="white"/>
<path d="M125.019 24.7059H121.822V10.0882H124.753V14.6176H124.96C125.404 12.1471 127.358 9.79412 131.088 9.79412C135.173 9.79412 137.186 12.5294 137.186 15.9118V24.7059H133.989V16.7647C133.989 14.0294 132.746 12.6471 129.697 12.6471C126.47 12.6471 125.019 14.2941 125.019 17.4706V24.7059Z" fill="white"/>
<path d="M144.357 25C141.308 25 139.384 23.5882 139.384 21.1765C139.384 18.9118 141.219 17.7353 144.12 17.4118L150.811 16.7059V15.8529C150.811 13.4412 149.745 12.5882 146.933 12.5882C144.209 12.5882 142.877 13.4706 142.877 15.6176V15.7353H139.709V15.6176C139.709 12.2941 142.492 9.79412 147.17 9.79412C151.847 9.79412 153.949 12.3235 153.949 15.8235V24.7059H151.018V21.0588H150.811C150.041 23.5294 147.702 25 144.357 25ZM142.581 20.9706C142.581 22.1471 143.38 22.7059 145.216 22.7059C148.561 22.7059 150.811 21.4706 150.811 18.5882L145.038 19.2353C143.38 19.4412 142.581 19.8235 142.581 20.9706Z" fill="white"/>
<path d="M160 24.7059H156.803V5H160V24.7059Z" fill="white"/>
</svg>
